<svg width="495" height="56" viewBox="0 0 495 56" fill="none" xmlns="http://www.w3.org/2000/svg">
<path d="M19.75 55.125V48.25H12.875V41.375H6V20.75H12.875V13.875H19.75V7H54.125V13.875H26.625V20.75H19.75V41.375H26.625V48.25H40.375V34.5H33.5V27.625H54.125V55.125H19.75ZM61 55.125V20.75H67.875V13.875H74.75V7H95.375V13.875H102.25V20.75H109.125V55.125H95.375V41.375H74.75V55.125H61ZM74.75 34.5H95.375V20.75H88.5V13.875H81.625V20.75H74.75V34.5ZM116 55.125V7H129.75V13.875H136.625V20.75H143.5V13.875H150.375V7H164.125V55.125H150.375V27.625H143.5V41.375H136.625V27.625H129.75V55.125H116ZM171 55.125V7H219.125V13.875H184.75V27.625H212.25V34.5H184.75V48.25H219.125V55.125H171ZM287.875 55.125V48.25H281V13.875H287.875V7H322.25V13.875H329.125V48.25H322.25V55.125H287.875ZM294.75 48.25H315.375V13.875H294.75V48.25ZM356.625 55.125V48.25H349.75V41.375H342.875V34.5H336V7H349.75V27.625H356.625V34.5H363.5V27.625H370.375V7H384.125V34.5H377.25V41.375H370.375V48.25H363.5V55.125H356.625ZM391 55.125V7H439.125V13.875H404.75V27.625H432.25V34.5H404.75V48.25H439.125V55.125H391ZM446 55.125V7H487.25V13.875H494.125V34.5H480.375V41.375H487.25V48.25H494.125V55.125H473.5V48.25H466.625V41.375H459.75V55.125H446ZM459.75 34.5H473.5V27.625H480.375V13.875H459.75V34.5Z" fill="white"/>
<path d="M13.75 48.125V41.25H6.875V34.375H0V13.75H6.875V6.875H13.75V0H48.125V6.875H20.625V13.75H13.75V34.375H20.625V41.25H34.375V27.5H27.5V20.625H48.125V48.125H13.75ZM55 48.125V13.75H61.875V6.875H68.75V0H89.375V6.875H96.25V13.75H103.125V48.125H89.375V34.375H68.75V48.125H55ZM68.75 27.5H89.375V13.75H82.5V6.875H75.625V13.75H68.75V27.5ZM110 48.125V0H123.75V6.875H130.625V13.75H137.5V6.875H144.375V0H158.125V48.125H144.375V20.625H137.5V34.375H130.625V20.625H123.75V48.125H110ZM165 48.125V0H213.125V6.875H178.75V20.625H206.25V27.5H178.75V41.25H213.125V48.125H165ZM281.875 48.125V41.25H275V6.875H281.875V0H316.25V6.875H323.125V41.25H316.25V48.125H281.875ZM288.75 41.25H309.375V6.875H288.75V41.25ZM350.625 48.125V41.25H343.75V34.375H336.875V27.5H330V0H343.75V20.625H350.625V27.5H357.5V20.625H364.375V0H378.125V27.5H371.25V34.375H364.375V41.25H357.5V48.125H350.625ZM385 48.125V0H433.125V6.875H398.75V20.625H426.25V27.5H398.75V41.25H433.125V48.125H385ZM440 48.125V0H481.25V6.875H488.125V27.5H474.375V34.375H481.25V41.25H488.125V48.125H467.5V41.25H460.625V34.375H453.75V48.125H440ZM453.75 27.5H467.5V20.625H474.375V6.875H453.75V27.5Z" fill="#644AA3"/>
</svg>
