<svg width="489" height="49" viewBox="0 0 489 49" fill="none" xmlns="http://www.w3.org/2000/svg">
<path d="M13.75 48.125V41.25H6.875V34.375H0V13.75H6.875V6.875H13.75V0H48.125V6.875H20.625V13.75H13.75V34.375H20.625V41.25H34.375V27.5H27.5V20.625H48.125V48.125H13.75ZM55 48.125V13.75H61.875V6.875H68.75V0H89.375V6.875H96.25V13.75H103.125V48.125H89.375V34.375H68.75V48.125H55ZM68.75 27.5H89.375V13.75H82.5V6.875H75.625V13.75H68.75V27.5ZM110 48.125V0H123.75V6.875H130.625V13.75H137.5V6.875H144.375V0H158.125V48.125H144.375V20.625H137.5V34.375H130.625V20.625H123.75V48.125H110ZM165 48.125V0H213.125V6.875H178.75V20.625H206.25V27.5H178.75V41.25H213.125V48.125H165ZM281.875 48.125V41.25H275V6.875H281.875V0H316.25V6.875H323.125V41.25H316.25V48.125H281.875ZM288.75 41.25H309.375V6.875H288.75V41.25ZM350.625 48.125V41.25H343.75V34.375H336.875V27.5H330V0H343.75V20.625H350.625V27.5H357.5V20.625H364.375V0H378.125V27.5H371.25V34.375H364.375V41.25H357.5V48.125H350.625ZM385 48.125V0H433.125V6.875H398.75V20.625H426.25V27.5H398.75V41.25H433.125V48.125H385ZM440 48.125V0H481.25V6.875H488.125V27.5H474.375V34.375H481.25V41.25H488.125V48.125H467.5V41.25H460.625V34.375H453.75V48.125H440ZM453.75 27.5H467.5V20.625H474.375V6.875H453.75V27.5Z" fill="#644AA3"/>
</svg>
