<svg width="196" height="16" viewBox="0 0 196 16" fill="none" xmlns="http://www.w3.org/2000/svg">
<path d="M0 15.75V0H15.75V2.25H4.5V6.75H13.5V9H4.5V13.5H15.75V15.75H0ZM20.25 15.75V13.5H18V11.25H22.5V13.5H29.25V9H20.25V6.75H18V2.25H20.25V0H31.5V2.25H33.75V4.5H29.25V2.25H22.5V6.75H31.5V9H33.75V13.5H31.5V15.75H20.25ZM40.5 15.75V13.5H38.25V11.25H36V4.5H38.25V2.25H40.5V0H49.5V2.25H51.75V4.5H47.25V2.25H42.75V4.5H40.5V11.25H42.75V13.5H47.25V11.25H51.75V13.5H49.5V15.75H40.5ZM78.75 15.75V2.25H74.25V0H87.75V2.25H83.25V15.75H78.75ZM92.25 15.75V13.5H90V2.25H92.25V0H103.5V2.25H105.75V13.5H103.5V15.75H92.25ZM94.5 13.5H101.25V2.25H94.5V13.5ZM141.75 2.25V11.25H139.5V13.5H137.25V15.75H128.25V13.5H126V2.25H128.25V0H139.5V2.25H141.75ZM137.25 2.25H130.5V13.5H135V11.25H132.75V9H137.25V2.25ZM139.5 15.75V13.5H141.75V15.75H139.5ZM146.25 15.75V13.5H144V0H148.5V13.5H155.25V0H159.75V13.5H157.5V15.75H146.25ZM164.25 15.75V13.5H168.75V2.25H164.25V0H177.75V2.25H173.25V13.5H177.75V15.75H164.25ZM186.75 15.75V2.25H182.25V0H195.75V2.25H191.25V15.75H186.75Z" fill="#C0C4C7"/>
</svg>
