<svg width="394" height="16" viewBox="0 0 394 16" fill="none" xmlns="http://www.w3.org/2000/svg">
<path d="M0 15.75V0H13.5V2.25H15.75V9H13.5V11.25H4.5V15.75H0ZM4.5 9H11.25V2.25H4.5V9ZM18 15.75V0H31.5V2.25H33.75V9H29.25V11.25H31.5V13.5H33.75V15.75H27V13.5H24.75V11.25H22.5V15.75H18ZM22.5 9H27V6.75H29.25V2.25H22.5V9ZM36 15.75V0H51.75V2.25H40.5V6.75H49.5V9H40.5V13.5H51.75V15.75H36ZM56.25 15.75V13.5H54V11.25H58.5V13.5H65.25V9H56.25V6.75H54V2.25H56.25V0H67.5V2.25H69.75V4.5H65.25V2.25H58.5V6.75H67.5V9H69.75V13.5H67.5V15.75H56.25ZM74.25 15.75V13.5H72V11.25H76.5V13.5H83.25V9H74.25V6.75H72V2.25H74.25V0H85.5V2.25H87.75V4.5H83.25V2.25H76.5V6.75H85.5V9H87.75V13.5H85.5V15.75H74.25ZM110.25 15.75V13.5H108V11.25H112.5V13.5H119.25V9H110.25V6.75H108V2.25H110.25V0H121.5V2.25H123.75V4.5H119.25V2.25H112.5V6.75H121.5V9H123.75V13.5H121.5V15.75H110.25ZM126 15.75V0H139.5V2.25H141.75V9H139.5V11.25H130.5V15.75H126ZM130.5 9H137.25V2.25H130.5V9ZM144 15.75V4.5H146.25V2.25H148.5V0H155.25V2.25H157.5V4.5H159.75V15.75H155.25V11.25H148.5V15.75H144ZM148.5 9H155.25V4.5H153V2.25H150.75V4.5H148.5V9ZM166.5 15.75V13.5H164.25V11.25H162V4.5H164.25V2.25H166.5V0H175.5V2.25H177.75V4.5H173.25V2.25H168.75V4.5H166.5V11.25H168.75V13.5H173.25V11.25H177.75V13.5H175.5V15.75H166.5ZM180 15.75V0H195.75V2.25H184.5V6.75H193.5V9H184.5V13.5H195.75V15.75H180ZM222.75 15.75V2.25H218.25V0H231.75V2.25H227.25V15.75H222.75ZM236.25 15.75V13.5H234V2.25H236.25V0H247.5V2.25H249.75V13.5H247.5V15.75H236.25ZM238.5 13.5H245.25V2.25H238.5V13.5ZM270 15.75V0H283.5V2.25H285.75V9H281.25V11.25H283.5V13.5H285.75V15.75H279V13.5H276.75V11.25H274.5V15.75H270ZM274.5 9H279V6.75H281.25V2.25H274.5V9ZM288 15.75V0H303.75V2.25H292.5V6.75H301.5V9H292.5V13.5H303.75V15.75H288ZM308.25 15.75V13.5H306V11.25H310.5V13.5H317.25V9H308.25V6.75H306V2.25H308.25V0H319.5V2.25H321.75V4.5H317.25V2.25H310.5V6.75H319.5V9H321.75V13.5H319.5V15.75H308.25ZM330.75 15.75V2.25H326.25V0H339.75V2.25H335.25V15.75H330.75ZM342 15.75V4.5H344.25V2.25H346.5V0H353.25V2.25H355.5V4.5H357.75V15.75H353.25V11.25H346.5V15.75H342ZM346.5 9H353.25V4.5H351V2.25H348.75V4.5H346.5V9ZM360 15.75V0H373.5V2.25H375.75V9H371.25V11.25H373.5V13.5H375.75V15.75H369V13.5H366.75V11.25H364.5V15.75H360ZM364.5 9H369V6.75H371.25V2.25H364.5V9ZM384.75 15.75V2.25H380.25V0H393.75V2.25H389.25V15.75H384.75Z" fill="white"/>
</svg>
