<svg width="704" height="57" viewBox="0 0 704 57" fill="none" xmlns="http://www.w3.org/2000/svg">
<path d="M4 50.75V7H41.5V13.25H47.75V32H35.25V38.25H41.5V44.5H47.75V50.75H29V44.5H22.75V38.25H16.5V50.75H4ZM16.5 32H29V25.75H35.25V13.25H16.5V32ZM60.25 50.75V44.5H54V13.25H60.25V7H91.5V13.25H97.75V44.5H91.5V50.75H60.25ZM66.5 44.5H85.25V13.25H66.5V44.5ZM116.5 50.75V44.5H110.25V38.25H104V19.5H110.25V13.25H116.5V7H141.5V13.25H147.75V19.5H135.25V13.25H122.75V19.5H116.5V38.25H122.75V44.5H135.25V38.25H147.75V44.5H141.5V50.75H116.5ZM154 50.75V7H166.5V25.75H172.75V19.5H179V13.25H185.25V7H197.75V13.25H191.5V19.5H185.25V25.75H179V32H185.25V38.25H191.5V44.5H197.75V50.75H179V44.5H172.75V38.25H166.5V50.75H154ZM204 50.75V7H247.75V13.25H216.5V25.75H241.5V32H216.5V44.5H247.75V50.75H204ZM272.75 50.75V13.25H260.25V7H297.75V13.25H285.25V50.75H272.75ZM360.25 50.75V44.5H354V38.25H366.5V44.5H385.25V7H397.75V44.5H391.5V50.75H360.25ZM410.25 50.75V44.5H404V13.25H410.25V7H441.5V13.25H447.75V44.5H441.5V50.75H410.25ZM416.5 44.5H435.25V13.25H416.5V44.5ZM460.25 50.75V44.5H454V7H466.5V44.5H485.25V7H497.75V44.5H491.5V50.75H460.25ZM504 50.75V7H541.5V13.25H547.75V32H535.25V38.25H541.5V44.5H547.75V50.75H529V44.5H522.75V38.25H516.5V50.75H504ZM516.5 32H529V25.75H535.25V13.25H516.5V32ZM554 50.75V7H566.5V13.25H572.75V19.5H579V25.75H585.25V7H597.75V50.75H585.25V38.25H579V32H572.75V25.75H566.5V50.75H554ZM604 50.75V7H647.75V13.25H616.5V25.75H641.5V32H616.5V44.5H647.75V50.75H604ZM672.75 50.75V32H666.5V25.75H660.25V7H672.75V25.75H685.25V7H697.75V25.75H691.5V32H685.25V50.75H672.75Z" fill="white"/>
<path d="M0 43.75V0H37.5V6.25H43.75V25H31.25V31.25H37.5V37.5H43.75V43.75H25V37.5H18.75V31.25H12.5V43.75H0ZM12.5 25H25V18.75H31.25V6.25H12.5V25ZM56.25 43.75V37.5H50V6.25H56.25V0H87.5V6.25H93.75V37.5H87.5V43.75H56.25ZM62.5 37.5H81.25V6.25H62.5V37.5ZM112.5 43.75V37.5H106.25V31.25H100V12.5H106.25V6.25H112.5V0H137.5V6.25H143.75V12.5H131.25V6.25H118.75V12.5H112.5V31.25H118.75V37.5H131.25V31.25H143.75V37.5H137.5V43.75H112.5ZM150 43.75V0H162.5V18.75H168.75V12.5H175V6.25H181.25V0H193.75V6.25H187.5V12.5H181.25V18.75H175V25H181.25V31.25H187.5V37.5H193.75V43.75H175V37.5H168.75V31.25H162.5V43.75H150ZM200 43.75V0H243.75V6.25H212.5V18.75H237.5V25H212.5V37.5H243.75V43.75H200ZM268.75 43.75V6.25H256.25V0H293.75V6.25H281.25V43.75H268.75ZM356.25 43.75V37.5H350V31.25H362.5V37.5H381.25V0H393.75V37.5H387.5V43.75H356.25ZM406.25 43.75V37.5H400V6.25H406.25V0H437.5V6.25H443.75V37.5H437.5V43.75H406.25ZM412.5 37.5H431.25V6.25H412.5V37.5ZM456.25 43.75V37.5H450V0H462.5V37.5H481.25V0H493.75V37.5H487.5V43.75H456.25ZM500 43.75V0H537.5V6.25H543.75V25H531.25V31.25H537.5V37.5H543.75V43.75H525V37.5H518.75V31.25H512.5V43.75H500ZM512.5 25H525V18.75H531.25V6.25H512.5V25ZM550 43.75V0H562.5V6.25H568.75V12.5H575V18.75H581.25V0H593.75V43.75H581.25V31.25H575V25H568.75V18.75H562.5V43.75H550ZM600 43.75V0H643.75V6.25H612.5V18.75H637.5V25H612.5V37.5H643.75V43.75H600ZM668.75 43.75V25H662.5V18.75H656.25V0H668.75V18.75H681.25V0H693.75V18.75H687.5V25H681.25V43.75H668.75Z" fill="#3699F5"/>
</svg>
