<svg width="386" height="388" viewBox="0 0 386 388" fill="none" xmlns="http://www.w3.org/2000/svg">
<rect opacity="0.7" x="2.5" y="2.5" width="381" height="383" rx="3.5" fill="#3699F5" stroke="white" stroke-width="5"/>
<g filter="url(#filter0_d_158_5)">
<path d="M96.25 66.75V51H100.75V64.5H109.75V66.75H96.25ZM112 66.75V51H127.75V53.25H116.5V57.75H125.5V60H116.5V64.5H127.75V66.75H112ZM130 66.75V55.5H132.25V53.25H134.5V51H141.25V53.25H143.5V55.5H145.75V66.75H141.25V62.25H134.5V66.75H130ZM134.5 60H141.25V55.5H139V53.25H136.75V55.5H134.5V60ZM148 66.75V51H159.25V53.25H161.5V55.5H163.75V62.25H161.5V64.5H159.25V66.75H148ZM152.5 64.5H157V62.25H159.25V55.5H157V53.25H152.5V64.5ZM166 66.75V51H181.75V53.25H170.5V57.75H179.5V60H170.5V64.5H181.75V66.75H166ZM184 66.75V51H197.5V53.25H199.75V60H195.25V62.25H197.5V64.5H199.75V66.75H193V64.5H190.75V62.25H188.5V66.75H184ZM188.5 60H193V57.75H195.25V53.25H188.5V60ZM202 66.75V51H215.5V53.25H217.75V57.75H215.5V60H217.75V64.5H215.5V66.75H202ZM206.5 57.75H213.25V53.25H206.5V57.75ZM206.5 64.5H213.25V60H206.5V64.5ZM222.25 66.75V64.5H220V53.25H222.25V51H233.5V53.25H235.75V64.5H233.5V66.75H222.25ZM224.5 64.5H231.25V53.25H224.5V64.5ZM238 66.75V55.5H240.25V53.25H242.5V51H249.25V53.25H251.5V55.5H253.75V66.75H249.25V62.25H242.5V66.75H238ZM242.5 60H249.25V55.5H247V53.25H244.75V55.5H242.5V60ZM256 66.75V51H269.5V53.25H271.75V60H267.25V62.25H269.5V64.5H271.75V66.75H265V64.5H262.75V62.25H260.5V66.75H256ZM260.5 60H265V57.75H267.25V53.25H260.5V60ZM274 66.75V51H285.25V53.25H287.5V55.5H289.75V62.25H287.5V64.5H285.25V66.75H274ZM278.5 64.5H283V62.25H285.25V55.5H283V53.25H278.5V64.5ZM67 120.75V105H78.25V107.25H80.5V109.5H82.75V116.25H80.5V118.5H78.25V120.75H67ZM71.5 118.5H76V116.25H78.25V109.5H76V107.25H71.5V118.5ZM85 120.75V109.5H87.25V107.25H89.5V105H96.25V107.25H98.5V109.5H100.75V120.75H96.25V116.25H89.5V120.75H85ZM89.5 114H96.25V109.5H94V107.25H91.75V109.5H89.5V114ZM109.75 120.75V118.5H107.5V116.25H105.25V114H103V105H107.5V111.75H109.75V114H112V111.75H114.25V105H118.75V114H116.5V116.25H114.25V118.5H112V120.75H109.75ZM123.25 120.75V118.5H127.75V107.25H123.25V105H136.75V107.25H132.25V118.5H136.75V120.75H123.25ZM139 120.75V105H150.25V107.25H152.5V109.5H154.75V116.25H152.5V118.5H150.25V120.75H139ZM143.5 118.5H148V116.25H150.25V109.5H148V107.25H143.5V118.5ZM161.5 111.75V107.25H166V111.75H161.5ZM161.5 118.5V114H166V118.5H161.5ZM195.25 120.75V118.5H202V116.25H204.25V114H195.25V111.75H193V107.25H195.25V105H206.5V107.25H208.75V116.25H206.5V118.5H204.25V120.75H195.25ZM197.5 111.75H204.25V107.25H197.5V111.75ZM213.25 120.75V118.5H220V116.25H222.25V114H213.25V111.75H211V107.25H213.25V105H224.5V107.25H226.75V116.25H224.5V118.5H222.25V120.75H213.25ZM215.5 111.75H222.25V107.25H215.5V111.75ZM231.25 120.75V118.5H238V116.25H240.25V114H231.25V111.75H229V107.25H231.25V105H242.5V107.25H244.75V116.25H242.5V118.5H240.25V120.75H231.25ZM233.5 111.75H240.25V107.25H233.5V111.75ZM249.25 120.75V118.5H256V116.25H258.25V114H249.25V111.75H247V107.25H249.25V105H260.5V107.25H262.75V116.25H260.5V118.5H258.25V120.75H249.25ZM251.5 111.75H258.25V107.25H251.5V111.75ZM267.25 120.75V118.5H274V116.25H276.25V114H267.25V111.75H265V107.25H267.25V105H278.5V107.25H280.75V116.25H278.5V118.5H276.25V120.75H267.25ZM269.5 111.75H276.25V107.25H269.5V111.75ZM287.5 120.75V118.5H285.25V116.25H283V109.5H285.25V107.25H287.5V105H294.25V107.25H296.5V109.5H298.75V116.25H296.5V118.5H294.25V120.75H287.5ZM289.75 118.5H294.25V109.5H292V107.25H287.5V116.25H289.75V118.5ZM301 123V109.5H314.5V111.75H316.75V116.25H314.5V118.5H305.5V123H301ZM305.5 116.25H312.25V111.75H305.5V116.25ZM96.25 156.75V154.5H94V152.25H98.5V154.5H105.25V141H109.75V154.5H107.5V156.75H96.25ZM112 156.75V145.5H114.25V143.25H116.5V141H123.25V143.25H125.5V145.5H127.75V156.75H123.25V152.25H116.5V156.75H112ZM116.5 150H123.25V145.5H121V143.25H118.75V145.5H116.5V150ZM130 156.75V141H134.5V143.25H136.75V145.5H139V147.75H141.25V141H145.75V156.75H141.25V152.25H139V150H136.75V147.75H134.5V156.75H130ZM148 156.75V141H152.5V143.25H154.75V145.5H157V147.75H159.25V141H163.75V156.75H159.25V152.25H157V150H154.75V147.75H152.5V156.75H148ZM166 156.75V141H181.75V143.25H170.5V147.75H179.5V150H170.5V154.5H181.75V156.75H166ZM188.5 147.75V143.25H193V147.75H188.5ZM188.5 154.5V150H193V154.5H188.5ZM222.25 156.75V154.5H220V152.25H224.5V154.5H231.25V150H224.5V147.75H226.75V145.5H229V143.25H222.25V141H235.75V143.25H233.5V145.5H231.25V147.75H233.5V150H235.75V154.5H233.5V156.75H222.25ZM242.5 156.75V150H244.75V147.75H247V145.5H249.25V143.25H242.5V145.5H238V141H253.75V145.5H251.5V147.75H249.25V150H247V156.75H242.5ZM260.5 156.75V154.5H258.25V152.25H256V145.5H258.25V143.25H260.5V141H267.25V143.25H269.5V145.5H271.75V152.25H269.5V154.5H267.25V156.75H260.5ZM262.75 154.5H267.25V145.5H265V143.25H260.5V152.25H262.75V154.5ZM274 159V145.5H287.5V147.75H289.75V152.25H287.5V154.5H278.5V159H274ZM278.5 152.25H285.25V147.75H278.5V152.25ZM76 192.75V177H91.75V179.25H80.5V183.75H89.5V186H80.5V192.75H76ZM94 192.75V177H107.5V179.25H109.75V186H105.25V188.25H107.5V190.5H109.75V192.75H103V190.5H100.75V188.25H98.5V192.75H94ZM98.5 186H103V183.75H105.25V179.25H98.5V186ZM112 192.75V177H127.75V179.25H116.5V183.75H125.5V186H116.5V190.5H127.75V192.75H112ZM130 192.75V177H141.25V179.25H143.5V181.5H145.75V188.25H143.5V190.5H141.25V192.75H130ZM134.5 190.5H139V188.25H141.25V181.5H139V179.25H134.5V190.5ZM148 192.75V177H161.5V179.25H163.75V186H159.25V188.25H161.5V190.5H163.75V192.75H157V190.5H154.75V188.25H152.5V192.75H148ZM152.5 186H157V183.75H159.25V179.25H152.5V186ZM168.25 192.75V190.5H172.75V179.25H168.25V177H181.75V179.25H177.25V190.5H181.75V192.75H168.25ZM184 192.75V177H188.5V183.75H190.75V181.5H193V179.25H195.25V177H199.75V179.25H197.5V181.5H195.25V183.75H193V186H195.25V188.25H197.5V190.5H199.75V192.75H193V190.5H190.75V188.25H188.5V192.75H184ZM206.5 183.75V179.25H211V183.75H206.5ZM206.5 190.5V186H211V190.5H206.5ZM238 192.75V188.25H240.25V186H242.5V183.75H247V181.5H249.25V179.25H242.5V181.5H238V179.25H240.25V177H251.5V179.25H253.75V183.75H251.5V186H249.25V188.25H244.75V190.5H253.75V192.75H238ZM258.25 192.75V190.5H265V188.25H267.25V186H258.25V183.75H256V179.25H258.25V177H269.5V179.25H271.75V188.25H269.5V190.5H267.25V192.75H258.25ZM260.5 183.75H267.25V179.25H260.5V183.75ZM278.5 192.75V190.5H276.25V188.25H274V181.5H276.25V179.25H278.5V177H285.25V179.25H287.5V181.5H289.75V188.25H287.5V190.5H285.25V192.75H278.5ZM280.75 190.5H285.25V181.5H283V179.25H278.5V188.25H280.75V190.5ZM292 195V181.5H305.5V183.75H307.75V188.25H305.5V190.5H296.5V195H292ZM296.5 188.25H303.25V183.75H296.5V188.25ZM94 228.75V213H98.5V215.25H100.75V217.5H103V215.25H105.25V213H109.75V228.75H105.25V219.75H103V224.25H100.75V219.75H98.5V228.75H94ZM114.25 228.75V226.5H118.75V215.25H114.25V213H127.75V215.25H123.25V226.5H127.75V228.75H114.25ZM130 228.75V213H134.5V219.75H136.75V217.5H139V215.25H141.25V213H145.75V215.25H143.5V217.5H141.25V219.75H139V222H141.25V224.25H143.5V226.5H145.75V228.75H139V226.5H136.75V224.25H134.5V228.75H130ZM148 228.75V213H163.75V215.25H152.5V219.75H161.5V222H152.5V226.5H163.75V228.75H148ZM168.25 228.75V213H172.75V226.5H181.75V228.75H168.25ZM184 228.75V217.5H186.25V215.25H188.5V213H195.25V215.25H197.5V217.5H199.75V228.75H195.25V224.25H188.5V228.75H184ZM188.5 222H195.25V217.5H193V215.25H190.75V217.5H188.5V222ZM206.5 219.75V215.25H211V219.75H206.5ZM206.5 226.5V222H211V226.5H206.5ZM240.25 228.75V226.5H244.75V217.5H242.5V215.25H244.75V213H249.25V226.5H253.75V228.75H240.25ZM260.5 228.75V226.5H258.25V224.25H256V217.5H258.25V215.25H260.5V213H267.25V215.25H269.5V217.5H271.75V224.25H269.5V226.5H267.25V228.75H260.5ZM262.75 226.5H267.25V217.5H265V215.25H260.5V224.25H262.75V226.5ZM274 231V217.5H287.5V219.75H289.75V224.25H287.5V226.5H278.5V231H274ZM278.5 224.25H285.25V219.75H278.5V224.25Z" fill="white"/>
</g>
<defs>
<filter id="filter0_d_158_5" x="63" y="51" width="257.75" height="188" filterUnits="userSpaceOnUse" color-interpolation-filters="sRGB">
<feFlood flood-opacity="0" result="BackgroundImageFix"/>
<feColorMatrix in="SourceAlpha" type="matrix" values="0 0 0 0 0 0 0 0 0 0 0 0 0 0 0 0 0 0 127 0" result="hardAlpha"/>
<feOffset dy="4"/>
<feGaussianBlur stdDeviation="2"/>
<feComposite in2="hardAlpha" operator="out"/>
<feColorMatrix type="matrix" values="0 0 0 0 0 0 0 0 0 0 0 0 0 0 0 0 0 0 0.25 0"/>
<feBlend mode="normal" in2="BackgroundImageFix" result="effect1_dropShadow_158_5"/>
<feBlend mode="normal" in="SourceGraphic" in2="effect1_dropShadow_158_5" result="shape"/>
</filter>
</defs>
</svg>
