<svg width="429" height="107" viewBox="0 0 429 107" fill="none" xmlns="http://www.w3.org/2000/svg">
<rect x="162.5" y="77.5" width="26.1966" height="26.1966" rx="2.5" fill="black" stroke="white" stroke-width="5"/>
<path d="M181.213 85.6069H169.982C169.869 85.6072 169.757 85.6386 169.66 85.6976C169.563 85.7566 169.483 85.841 169.431 85.9416C169.378 86.0423 169.353 86.1555 169.36 86.269C169.367 86.3825 169.404 86.4921 169.469 86.5858L175.084 94.6969C175.317 95.0332 175.877 95.0332 176.11 94.6969L181.726 86.5858C181.791 86.4923 181.829 86.3827 181.836 86.269C181.843 86.1553 181.819 86.0418 181.766 85.9409C181.713 85.84 181.634 85.7555 181.536 85.6966C181.439 85.6377 181.327 85.6067 181.213 85.6069ZM175.598 93.2457L171.173 86.8547H180.023L175.598 93.2457Z" fill="white"/>
<path d="M216.75 61.25V59.5H215V49H218.5V59.5H223.75V49H227.25V59.5H225.5V61.25H216.75ZM229 61.25V49H239.5V50.75H241.25V56H239.5V57.75H232.5V61.25H229ZM232.5 56H237.75V50.75H232.5V56ZM215 101.25V89H223.75V90.75H225.5V92.5H227.25V97.75H225.5V99.5H223.75V101.25H215ZM218.5 99.5H222V97.75H223.75V92.5H222V90.75H218.5V99.5ZM230.75 101.25V99.5H229V90.75H230.75V89H239.5V90.75H241.25V99.5H239.5V101.25H230.75ZM232.5 99.5H237.75V90.75H232.5V99.5ZM244.75 101.25V99.5H243V89H246.5V96H248.25V89H250V96H251.75V89H255.25V99.5H253.5V101.25H251.75V99.5H250V97.75H248.25V99.5H246.5V101.25H244.75ZM257 101.25V89H260.5V90.75H262.25V92.5H264V94.25H265.75V89H269.25V101.25H265.75V97.75H264V96H262.25V94.25H260.5V101.25H257Z" fill="white"/>
<rect x="162.5" y="45.5" width="26.1966" height="26.1966" rx="2.5" fill="black" stroke="white" stroke-width="5"/>
<path d="M169.983 62.9491H181.214C181.328 62.9487 181.439 62.9174 181.536 62.8584C181.634 62.7994 181.713 62.715 181.766 62.6143C181.819 62.5136 181.843 62.4004 181.836 62.2869C181.829 62.1734 181.792 62.0639 181.728 61.9701L176.112 53.859C175.879 53.5227 175.319 53.5227 175.086 53.859L169.47 61.9701C169.405 62.0637 169.367 62.1733 169.36 62.287C169.353 62.4007 169.377 62.5141 169.43 62.615C169.483 62.716 169.563 62.8004 169.66 62.8593C169.758 62.9182 169.869 62.9493 169.983 62.9491ZM175.599 55.3103L180.024 61.7012H171.174L175.599 55.3103Z" fill="white"/>
<path d="M137.5 12.25V0H141V5.25H146.25V0H149.75V12.25H146.25V7H141V12.25H137.5ZM153.25 12.25V10.5H151.5V1.75H153.25V0H162V1.75H163.75V10.5H162V12.25H153.25ZM155 10.5H160.25V1.75H155V10.5ZM167.25 12.25V10.5H165.5V0H169V7H170.75V0H172.5V7H174.25V0H177.75V10.5H176V12.25H174.25V10.5H172.5V8.75H170.75V10.5H169V12.25H167.25ZM198.75 12.25V1.75H195.25V0H205.75V1.75H202.25V12.25H198.75ZM209.25 12.25V10.5H207.5V1.75H209.25V0H218V1.75H219.75V10.5H218V12.25H209.25ZM211 10.5H216.25V1.75H211V10.5ZM235.5 12.25V0H246V1.75H247.75V7H246V8.75H239V12.25H235.5ZM239 7H244.25V1.75H239V7ZM251.25 12.25V0H254.75V10.5H261.75V12.25H251.25ZM263.5 12.25V3.5H265.25V1.75H267V0H272.25V1.75H274V3.5H275.75V12.25H272.25V8.75H267V12.25H263.5ZM267 7H272.25V3.5H270.5V1.75H268.75V3.5H267V7ZM282.75 12.25V7H281V5.25H279.25V0H282.75V5.25H286.25V0H289.75V5.25H288V7H286.25V12.25H282.75Z" fill="white"/>
</svg>
